# xmcd
#
# Track frame offsets:
#	150
#	19276
#	36334
#	53415
#	77029
#	96674
#	112042
#	126200
#	139396
#	151016
#	171187
#	189527
#	209297
#	226554
#	245515
#	257099
#	275360
#	296193
#	315592
#	338492
#
# Disc length: 4700 seconds
#
# Revision: 1
# Processed by: cddbd v1.5.2PL0 Copyright (c) Steve Scherf et al.
# Submitted via: audiograbber 1.83.01
#
DISCID=1e125a14
DTITLE=Chartboxx - Sunshine Feeling -CD1-
DYEAR=2014
DGENRE=
TTITLE0=Hurts - Wonderful Life
TTITLE1=OutKast - Hey Ya!
TTITLE2=Jamiroquai - Love Foolosophy
TTITLE3=Justin Timberlake - What Goes Around Comes Around
TTITLE4=Train - Drops Of Jupiter
TTITLE5=Natasha Bedingfield - Pocketful Of Sunshine
TTITLE6=Isley Brothers - Summer Breeze
TTITLE7=Dionne Warwick - Do You Know The Way To San Jose
TTITLE8=Liza Mninelli - You Are The Sunshine Of My Life
TTITLE9=Wham! - Club Tropicana
TTITLE10=Barry Manilow - Copacabana (At The Copa)
TTITLE11=Shakira - En Tus Pupilas
TTITLE12=Dick Brave and The Backbeats - Just The Way You Are
TTITLE13=Script - For The First Time
TTITLE14=Coral - In The Morning
TTITLE15=Chairlift - Bruises
TTITLE16=Outlandish - Aicha
TTITLE17=Usher - Burn
TTITLE18=Alicia Keys - A Woman's Worth
TTITLE19=Maria Mena - Viktroria
EXTD=
EXTT0=
EXTT1=
EXTT2=
EXTT3=
EXTT4=
EXTT5=
EXTT6=
EXTT7=
EXTT8=
EXTT9=
EXTT10=
EXTT11=
EXTT12=
EXTT13=
EXTT14=
EXTT15=
EXTT16=
EXTT17=
EXTT18=
EXTT19=
PLAYORDER=
